<svg width="280" height="50" viewBox="0 0 280 50" fill="none" xmlns="http://www.w3.org/2000/svg">
<rect width="280" height="50" rx="10" fill="url(#paint0_linear)" fill-opacity="0.5"/>
<path d="M131.626 25.304V23.988H124.486V22.476H131.262V18.43H122.792V19.732H129.638V21.174H122.862V25.304H126.208V27.25H121.42V28.552H132.69V27.25H127.846V25.304H131.626ZM144.803 28.342V27.054H133.533V28.342H144.803ZM143.375 18.906H134.821V20.194H141.737C141.751 22.252 141.485 24.912 141.205 26.158L142.801 26.312C143.095 24.758 143.375 22.448 143.375 18.906ZM155.951 26.676V17.632H154.327V26.676H155.951ZM156.231 29.77V28.482H149.231V25.78H147.579V29.77H156.231ZM146.039 21.636C146.039 23.428 147.369 24.702 149.413 24.702C151.471 24.702 152.787 23.428 152.787 21.636C152.787 19.872 151.471 18.556 149.413 18.556C147.369 18.556 146.039 19.872 146.039 21.636ZM147.719 21.636C147.719 20.684 148.363 19.956 149.413 19.956C150.491 19.956 151.121 20.684 151.121 21.636C151.121 22.63 150.491 23.358 149.413 23.358C148.363 23.358 147.719 22.63 147.719 21.636Z" fill="white"/>
<defs>
<linearGradient id="paint0_linear" x1="-1.04308e-06" y1="25" x2="280" y2="25" gradientUnits="userSpaceOnUse">
<stop stop-color="#6B40FF"/>
<stop offset="0.494792" stop-color="#1F1AFF"/>
<stop offset="0.494892" stop-color="#221EFF"/>
<stop offset="1" stop-color="#8099FF"/>
</linearGradient>
</defs>
</svg>
